<svg width="26" height="23" viewBox="0 0 26 23" fill="none" xmlns="http://www.w3.org/2000/svg">
<path d="M7.01524 7.48601L4.29102 10.315L11.7858 18.098L25.2018 4.16601L22.4785 1.33701L11.7858 12.439L7.01524 7.48601Z" fill="white"/>
<path d="M20.2222 20C20.2222 20.542 19.7812 21 19.2593 21H2.88889C2.36696 21 1.92593 20.542 1.92593 20V3C1.92593 2.458 2.36696 2 2.88889 2H19.1707L20.697 0.415C20.2617 0.146542 19.7655 0.00329969 19.2593 0H2.88889C1.3 0 0 1.35 0 3V20C0 21.65 1.3 23 2.88889 23H19.2593C20.8481 23 22.1482 21.65 22.1482 20V10.171L20.2222 12.171V20Z" fill="white"/>
</svg>
